# MagicaVoxel @ Ephtracy

# group
o 

# material
mtllib bench.mtl
usemtl palette

# normals
vn -1 0 0
vn 1 0 0
vn 0 0 1
vn 0 0 -1
vn 0 -1 0
vn 0 1 0

# texcoords
vt 0.0644531 0.5
vt 0.373047 0.5
vt 0.396484 0.5

# verts
v -1.7 0.4 -0.2
v -1.7 0.4 -0.8
v -1.7 0.5 -0.2
v -1.7 0.5 -0.8
v -1.6 0 -0.2
v -1.6 0 -0.4
v -1.6 0 -0.6
v -1.6 0 -0.8
v -1.6 0.1 -0.2
v -1.6 0.1 -0.3
v -1.6 0.1 -0.7
v -1.6 0.1 -0.8
v -1.6 0.3 -0.4
v -1.6 0.3 -0.6
v -1.6 0.4 -0.3
v -1.6 0.4 -0.7
v 1.5 0 -0.2
v 1.5 0 -0.4
v 1.5 0 -0.6
v 1.5 0 -0.8
v 1.5 0.1 -0.2
v 1.5 0.1 -0.3
v 1.5 0.1 -0.7
v 1.5 0.1 -0.8
v 1.5 0.3 -0.4
v 1.5 0.3 -0.6
v 1.5 0.4 -0.3
v 1.5 0.4 -0.7
v -1.5 0 -0.2
v -1.5 0 -0.4
v -1.5 0 -0.6
v -1.5 0 -0.8
v -1.5 0.1 -0.2
v -1.5 0.1 -0.3
v -1.5 0.1 -0.7
v -1.5 0.1 -0.8
v -1.5 0.3 -0.4
v -1.5 0.3 -0.6
v -1.5 0.4 -0.3
v -1.5 0.4 -0.7
v 1.6 0 -0.2
v 1.6 0 -0.4
v 1.6 0 -0.6
v 1.6 0 -0.8
v 1.6 0.1 -0.2
v 1.6 0.1 -0.3
v 1.6 0.1 -0.7
v 1.6 0.1 -0.8
v 1.6 0.3 -0.4
v 1.6 0.3 -0.6
v 1.6 0.4 -0.3
v 1.6 0.4 -0.7
v 1.7 0.4 -0.2
v 1.7 0.4 -0.8
v 1.7 0.5 -0.2
v 1.7 0.5 -0.8
v -1.7 0.4 -0.2
v -1.7 0.5 -0.2
v -1.6 0 -0.2
v -1.6 0.1 -0.2
v -1.5 0 -0.2
v -1.5 0.1 -0.2
v 1.5 0 -0.2
v 1.5 0.1 -0.2
v 1.6 0 -0.2
v 1.6 0.1 -0.2
v 1.7 0.4 -0.2
v 1.7 0.5 -0.2
v -1.6 0.1 -0.3
v -1.6 0.4 -0.3
v -1.5 0.1 -0.3
v -1.5 0.4 -0.3
v 1.5 0.1 -0.3
v 1.5 0.4 -0.3
v 1.6 0.1 -0.3
v 1.6 0.4 -0.3
v -1.6 0 -0.6
v -1.6 0.3 -0.6
v -1.5 0 -0.6
v -1.5 0.3 -0.6
v 1.5 0 -0.6
v 1.5 0.3 -0.6
v 1.6 0 -0.6
v 1.6 0.3 -0.6
v -1.6 0 -0.4
v -1.6 0.3 -0.4
v -1.5 0 -0.4
v -1.5 0.3 -0.4
v 1.5 0 -0.4
v 1.5 0.3 -0.4
v 1.6 0 -0.4
v 1.6 0.3 -0.4
v -1.6 0.1 -0.7
v -1.6 0.4 -0.7
v -1.5 0.1 -0.7
v -1.5 0.4 -0.7
v 1.5 0.1 -0.7
v 1.5 0.4 -0.7
v 1.6 0.1 -0.7
v 1.6 0.4 -0.7
v -1.7 0.4 -0.8
v -1.7 0.5 -0.8
v -1.6 0 -0.8
v -1.6 0.1 -0.8
v -1.5 0 -0.8
v -1.5 0.1 -0.8
v 1.5 0 -0.8
v 1.5 0.1 -0.8
v 1.6 0 -0.8
v 1.6 0.1 -0.8
v 1.7 0.4 -0.8
v 1.7 0.5 -0.8
v -1.6 0 -0.2
v -1.5 0 -0.2
v 1.5 0 -0.2
v 1.6 0 -0.2
v -1.6 0 -0.4
v -1.5 0 -0.4
v 1.5 0 -0.4
v 1.6 0 -0.4
v -1.6 0 -0.6
v -1.5 0 -0.6
v 1.5 0 -0.6
v 1.6 0 -0.6
v -1.6 0 -0.8
v -1.5 0 -0.8
v 1.5 0 -0.8
v 1.6 0 -0.8
v -1.6 0.3 -0.4
v -1.5 0.3 -0.4
v 1.5 0.3 -0.4
v 1.6 0.3 -0.4
v -1.6 0.3 -0.6
v -1.5 0.3 -0.6
v 1.5 0.3 -0.6
v 1.6 0.3 -0.6
v -1.7 0.4 -0.2
v 1.7 0.4 -0.2
v -1.6 0.4 -0.3
v -1.5 0.4 -0.3
v 1.5 0.4 -0.3
v 1.6 0.4 -0.3
v -1.6 0.4 -0.7
v -1.5 0.4 -0.7
v 1.5 0.4 -0.7
v 1.6 0.4 -0.7
v -1.7 0.4 -0.8
v 1.7 0.4 -0.8
v -1.6 0.1 -0.2
v -1.5 0.1 -0.2
v 1.5 0.1 -0.2
v 1.6 0.1 -0.2
v -1.6 0.1 -0.3
v -1.5 0.1 -0.3
v 1.5 0.1 -0.3
v 1.6 0.1 -0.3
v -1.6 0.1 -0.7
v -1.5 0.1 -0.7
v 1.5 0.1 -0.7
v 1.6 0.1 -0.7
v -1.6 0.1 -0.8
v -1.5 0.1 -0.8
v 1.5 0.1 -0.8
v 1.6 0.1 -0.8
v -1.7 0.5 -0.2
v 1.7 0.5 -0.2
v -1.6 0.5 -0.3
v 1.6 0.5 -0.3
v -1.6 0.5 -0.7
v 1.6 0.5 -0.7
v -1.7 0.5 -0.8
v 1.7 0.5 -0.8

# faces
f 3/3/1 2/3/1 1/3/1
f 4/3/1 2/3/1 3/3/1
f 9/2/1 6/2/1 5/2/1
f 10/2/1 6/2/1 9/2/1
f 11/2/1 8/2/1 7/2/1
f 12/2/1 8/2/1 11/2/1
f 13/2/1 6/2/1 10/2/1
f 14/2/1 11/2/1 7/2/1
f 15/2/1 13/2/1 10/2/1
f 15/2/1 14/2/1 13/2/1
f 16/2/1 11/2/1 14/2/1
f 16/2/1 14/2/1 15/2/1
f 21/2/1 18/2/1 17/2/1
f 22/2/1 18/2/1 21/2/1
f 23/2/1 20/2/1 19/2/1
f 24/2/1 20/2/1 23/2/1
f 25/2/1 18/2/1 22/2/1
f 26/2/1 23/2/1 19/2/1
f 27/2/1 25/2/1 22/2/1
f 27/2/1 26/2/1 25/2/1
f 28/2/1 23/2/1 26/2/1
f 28/2/1 26/2/1 27/2/1
f 29/2/2 30/2/2 33/2/2
f 33/2/2 30/2/2 34/2/2
f 31/2/2 32/2/2 35/2/2
f 35/2/2 32/2/2 36/2/2
f 34/2/2 30/2/2 37/2/2
f 31/2/2 35/2/2 38/2/2
f 34/2/2 37/2/2 39/2/2
f 37/2/2 38/2/2 39/2/2
f 38/2/2 35/2/2 40/2/2
f 39/2/2 38/2/2 40/2/2
f 41/2/2 42/2/2 45/2/2
f 45/2/2 42/2/2 46/2/2
f 43/2/2 44/2/2 47/2/2
f 47/2/2 44/2/2 48/2/2
f 46/2/2 42/2/2 49/2/2
f 43/2/2 47/2/2 50/2/2
f 46/2/2 49/2/2 51/2/2
f 49/2/2 50/2/2 51/2/2
f 50/2/2 47/2/2 52/2/2
f 51/2/2 50/2/2 52/2/2
f 53/3/2 54/3/2 55/3/2
f 55/3/2 54/3/2 56/3/2
f 61/2/3 60/2/3 59/2/3
f 62/2/3 60/2/3 61/2/3
f 65/2/3 64/2/3 63/2/3
f 66/2/3 64/2/3 65/2/3
f 67/3/3 58/3/3 57/3/3
f 68/3/3 58/3/3 67/3/3
f 71/2/3 70/2/3 69/2/3
f 72/2/3 70/2/3 71/2/3
f 75/2/3 74/2/3 73/2/3
f 76/2/3 74/2/3 75/2/3
f 79/2/3 78/2/3 77/2/3
f 80/2/3 78/2/3 79/2/3
f 83/2/3 82/2/3 81/2/3
f 84/2/3 82/2/3 83/2/3
f 85/2/4 86/2/4 87/2/4
f 87/2/4 86/2/4 88/2/4
f 89/2/4 90/2/4 91/2/4
f 91/2/4 90/2/4 92/2/4
f 93/2/4 94/2/4 95/2/4
f 95/2/4 94/2/4 96/2/4
f 97/2/4 98/2/4 99/2/4
f 99/2/4 98/2/4 100/2/4
f 103/2/4 104/2/4 105/2/4
f 105/2/4 104/2/4 106/2/4
f 107/2/4 108/2/4 109/2/4
f 109/2/4 108/2/4 110/2/4
f 101/3/4 102/3/4 111/3/4
f 111/3/4 102/3/4 112/3/4
f 117/2/5 114/2/5 113/2/5
f 118/2/5 114/2/5 117/2/5
f 119/2/5 116/2/5 115/2/5
f 120/2/5 116/2/5 119/2/5
f 125/2/5 122/2/5 121/2/5
f 126/2/5 122/2/5 125/2/5
f 127/2/5 124/2/5 123/2/5
f 128/2/5 124/2/5 127/2/5
f 133/2/5 130/2/5 129/2/5
f 134/2/5 130/2/5 133/2/5
f 135/2/5 132/2/5 131/2/5
f 136/2/5 132/2/5 135/2/5
f 139/3/5 138/3/5 137/3/5
f 140/3/5 138/3/5 139/3/5
f 141/3/5 138/3/5 140/3/5
f 142/3/5 138/3/5 141/3/5
f 143/3/5 139/3/5 137/3/5
f 144/1/5 141/1/5 140/1/5
f 145/1/5 141/1/5 144/1/5
f 146/3/5 138/3/5 142/3/5
f 147/3/5 145/3/5 144/3/5
f 147/3/5 146/3/5 145/3/5
f 147/3/5 143/3/5 137/3/5
f 147/3/5 144/3/5 143/3/5
f 148/3/5 138/3/5 146/3/5
f 148/3/5 146/3/5 147/3/5
f 149/2/6 150/2/6 153/2/6
f 153/2/6 150/2/6 154/2/6
f 151/2/6 152/2/6 155/2/6
f 155/2/6 152/2/6 156/2/6
f 157/2/6 158/2/6 161/2/6
f 161/2/6 158/2/6 162/2/6
f 159/2/6 160/2/6 163/2/6
f 163/2/6 160/2/6 164/2/6
f 165/3/6 166/3/6 167/3/6
f 167/3/6 166/3/6 168/3/6
f 165/3/6 167/3/6 169/3/6
f 167/1/6 168/1/6 169/1/6
f 168/3/6 166/3/6 170/3/6
f 169/1/6 168/1/6 170/1/6
f 165/3/6 169/3/6 171/3/6
f 169/3/6 170/3/6 171/3/6
f 170/3/6 166/3/6 172/3/6
f 171/3/6 170/3/6 172/3/6
