# MagicaVoxel @ Ephtracy

# group
o 

# material
mtllib display-case-bottom.mtl
usemtl palette

# normals
vn -1 0 0
vn 1 0 0
vn 0 0 1
vn 0 0 -1
vn 0 -1 0
vn 0 1 0

# texcoords
vt 0.337891 0.5
vt 0.970703 0.5
vt 0.974609 0.5
vt 0.990234 0.5

# verts
v -1.3 0.1 1
v -1.3 0.1 -0.6
v -1.3 0.2 0.9
v -1.3 0.2 0.8
v -1.3 0.2 -0.4
v -1.3 0.2 -0.5
v -1.3 0.3 0.9
v -1.3 0.3 0.8
v -1.3 0.3 -0.4
v -1.3 0.3 -0.5
v -1.3 1.1 0.9
v -1.3 1.1 0.8
v -1.3 1.1 -0.4
v -1.3 1.1 -0.5
v -1.3 1.2 0.9
v -1.3 1.2 0.8
v -1.3 1.2 -0.4
v -1.3 1.2 -0.5
v -1.3 1.3 1
v -1.3 1.3 -0.6
v -1.2 0 0.9
v -1.2 0 0.7
v -1.2 0 -0.3
v -1.2 0 -0.5
v -1.2 0.1 0.9
v -1.2 0.1 0.7
v -1.2 0.1 -0.3
v -1.2 0.1 -0.5
v 0.8 0 0.9
v 0.8 0 0.7
v 0.8 0 -0.3
v 0.8 0 -0.5
v 0.8 0.1 0.9
v 0.8 0.1 0.7
v 0.8 0.1 -0.3
v 0.8 0.1 -0.5
v -1 0 0.9
v -1 0 0.7
v -1 0 -0.3
v -1 0 -0.5
v -1 0.1 0.9
v -1 0.1 0.7
v -1 0.1 -0.3
v -1 0.1 -0.5
v 1 0 0.9
v 1 0 0.7
v 1 0 -0.3
v 1 0 -0.5
v 1 0.1 0.9
v 1 0.1 0.7
v 1 0.1 -0.3
v 1 0.1 -0.5
v 1.1 0.1 1
v 1.1 0.1 -0.6
v 1.1 0.2 0.9
v 1.1 0.2 0.8
v 1.1 0.2 -0.4
v 1.1 0.2 -0.5
v 1.1 0.3 0.9
v 1.1 0.3 0.8
v 1.1 0.3 -0.4
v 1.1 0.3 -0.5
v 1.1 1.1 0.9
v 1.1 1.1 0.8
v 1.1 1.1 -0.4
v 1.1 1.1 -0.5
v 1.1 1.2 0.9
v 1.1 1.2 0.8
v 1.1 1.2 -0.4
v 1.1 1.2 -0.5
v 1.1 1.3 1
v 1.1 1.3 -0.6
v -1.3 0.1 1
v -1.3 1.3 1
v -1.2 0.2 1
v -1.2 0.3 1
v -1.2 1.1 1
v -1.2 1.2 1
v -1.1 0.2 1
v -1.1 0.3 1
v -1.1 1.1 1
v -1.1 1.2 1
v 0.9 0.2 1
v 0.9 0.3 1
v 0.9 1.1 1
v 0.9 1.2 1
v 1 0.2 1
v 1 0.3 1
v 1 1.1 1
v 1 1.2 1
v 1.1 0.1 1
v 1.1 1.3 1
v -1.2 0 0.9
v -1.2 0.1 0.9
v -1 0 0.9
v -1 0.1 0.9
v 0.8 0 0.9
v 0.8 0.1 0.9
v 1 0 0.9
v 1 0.1 0.9
v -1.2 0 -0.3
v -1.2 0.1 -0.3
v -1 0 -0.3
v -1 0.1 -0.3
v 0.8 0 -0.3
v 0.8 0.1 -0.3
v 1 0 -0.3
v 1 0.1 -0.3
v -1.2 0 0.7
v -1.2 0.1 0.7
v -1 0 0.7
v -1 0.1 0.7
v 0.8 0 0.7
v 0.8 0.1 0.7
v 1 0 0.7
v 1 0.1 0.7
v -1.2 0 -0.5
v -1.2 0.1 -0.5
v -1 0 -0.5
v -1 0.1 -0.5
v 0.8 0 -0.5
v 0.8 0.1 -0.5
v 1 0 -0.5
v 1 0.1 -0.5
v -1.3 0.1 -0.6
v -1.3 1.3 -0.6
v -1.2 0.2 -0.6
v -1.2 0.3 -0.6
v -1.2 1.1 -0.6
v -1.2 1.2 -0.6
v -1.1 0.2 -0.6
v -1.1 0.3 -0.6
v -1.1 1.1 -0.6
v -1.1 1.2 -0.6
v 0.9 0.2 -0.6
v 0.9 0.3 -0.6
v 0.9 1.1 -0.6
v 0.9 1.2 -0.6
v 1 0.2 -0.6
v 1 0.3 -0.6
v 1 1.1 -0.6
v 1 1.2 -0.6
v 1.1 0.1 -0.6
v 1.1 1.3 -0.6
v -1.2 0 0.9
v -1 0 0.9
v 0.8 0 0.9
v 1 0 0.9
v -1.2 0 0.7
v -1 0 0.7
v 0.8 0 0.7
v 1 0 0.7
v -1.2 0 -0.3
v -1 0 -0.3
v 0.8 0 -0.3
v 1 0 -0.3
v -1.2 0 -0.5
v -1 0 -0.5
v 0.8 0 -0.5
v 1 0 -0.5
v -1.3 0.1 1
v 1.1 0.1 1
v -1.2 0.1 0.9
v -1 0.1 0.9
v 0.8 0.1 0.9
v 1 0.1 0.9
v -1.2 0.1 0.7
v -1 0.1 0.7
v 0.8 0.1 0.7
v 1 0.1 0.7
v -1.2 0.1 -0.3
v -1 0.1 -0.3
v 0.8 0.1 -0.3
v 1 0.1 -0.3
v -1.2 0.1 -0.5
v -1 0.1 -0.5
v 0.8 0.1 -0.5
v 1 0.1 -0.5
v -1.3 0.1 -0.6
v 1.1 0.1 -0.6
v -1.3 1.3 1
v 1.1 1.3 1
v -1.2 1.3 0.9
v 1 1.3 0.9
v -1.2 1.3 -0.5
v 1 1.3 -0.5
v -1.3 1.3 -0.6
v 1.1 1.3 -0.6

# faces
f 3/1/1 2/1/1 1/1/1
f 4/1/1 2/1/1 3/1/1
f 5/1/1 2/1/1 4/1/1
f 6/1/1 2/1/1 5/1/1
f 7/1/1 3/1/1 1/1/1
f 7/3/1 4/3/1 3/3/1
f 8/1/1 5/1/1 4/1/1
f 8/3/1 4/3/1 7/3/1
f 9/3/1 6/3/1 5/3/1
f 9/1/1 5/1/1 8/1/1
f 10/1/1 2/1/1 6/1/1
f 10/3/1 6/3/1 9/3/1
f 11/1/1 9/1/1 8/1/1
f 11/1/1 8/1/1 7/1/1
f 11/1/1 10/1/1 9/1/1
f 11/1/1 7/1/1 1/1/1
f 12/1/1 10/1/1 11/1/1
f 13/1/1 10/1/1 12/1/1
f 14/1/1 2/1/1 10/1/1
f 14/1/1 10/1/1 13/1/1
f 15/1/1 11/1/1 1/1/1
f 15/3/1 12/3/1 11/3/1
f 16/1/1 13/1/1 12/1/1
f 16/3/1 12/3/1 15/3/1
f 17/3/1 14/3/1 13/3/1
f 17/1/1 13/1/1 16/1/1
f 18/1/1 2/1/1 14/1/1
f 18/3/1 14/3/1 17/3/1
f 19/1/1 15/1/1 1/1/1
f 19/1/1 17/1/1 16/1/1
f 19/1/1 18/1/1 17/1/1
f 19/1/1 16/1/1 15/1/1
f 20/1/1 2/1/1 18/1/1
f 20/1/1 18/1/1 19/1/1
f 25/4/1 22/4/1 21/4/1
f 26/4/1 22/4/1 25/4/1
f 27/4/1 24/4/1 23/4/1
f 28/4/1 24/4/1 27/4/1
f 33/4/1 30/4/1 29/4/1
f 34/4/1 30/4/1 33/4/1
f 35/4/1 32/4/1 31/4/1
f 36/4/1 32/4/1 35/4/1
f 37/4/2 38/4/2 41/4/2
f 41/4/2 38/4/2 42/4/2
f 39/4/2 40/4/2 43/4/2
f 43/4/2 40/4/2 44/4/2
f 45/4/2 46/4/2 49/4/2
f 49/4/2 46/4/2 50/4/2
f 47/4/2 48/4/2 51/4/2
f 51/4/2 48/4/2 52/4/2
f 53/1/2 54/1/2 55/1/2
f 55/1/2 54/1/2 56/1/2
f 56/1/2 54/1/2 57/1/2
f 57/1/2 54/1/2 58/1/2
f 53/1/2 55/1/2 59/1/2
f 55/3/2 56/3/2 59/3/2
f 56/1/2 57/1/2 60/1/2
f 59/3/2 56/3/2 60/3/2
f 57/3/2 58/3/2 61/3/2
f 60/1/2 57/1/2 61/1/2
f 58/1/2 54/1/2 62/1/2
f 61/3/2 58/3/2 62/3/2
f 60/1/2 61/1/2 63/1/2
f 59/1/2 60/1/2 63/1/2
f 61/1/2 62/1/2 63/1/2
f 53/1/2 59/1/2 63/1/2
f 63/1/2 62/1/2 64/1/2
f 64/1/2 62/1/2 65/1/2
f 62/1/2 54/1/2 66/1/2
f 65/1/2 62/1/2 66/1/2
f 53/1/2 63/1/2 67/1/2
f 63/3/2 64/3/2 67/3/2
f 64/1/2 65/1/2 68/1/2
f 67/3/2 64/3/2 68/3/2
f 65/3/2 66/3/2 69/3/2
f 68/1/2 65/1/2 69/1/2
f 66/1/2 54/1/2 70/1/2
f 69/3/2 66/3/2 70/3/2
f 53/1/2 67/1/2 71/1/2
f 68/1/2 69/1/2 71/1/2
f 69/1/2 70/1/2 71/1/2
f 67/1/2 68/1/2 71/1/2
f 70/1/2 54/1/2 72/1/2
f 71/1/2 70/1/2 72/1/2
f 75/1/3 74/1/3 73/1/3
f 76/1/3 74/1/3 75/1/3
f 77/1/3 74/1/3 76/1/3
f 78/1/3 74/1/3 77/1/3
f 79/1/3 75/1/3 73/1/3
f 79/3/3 76/3/3 75/3/3
f 80/1/3 77/1/3 76/1/3
f 80/3/3 76/3/3 79/3/3
f 81/3/3 78/3/3 77/3/3
f 81/1/3 77/1/3 80/1/3
f 82/1/3 74/1/3 78/1/3
f 82/3/3 78/3/3 81/3/3
f 83/1/3 81/1/3 80/1/3
f 83/1/3 80/1/3 79/1/3
f 83/1/3 82/1/3 81/1/3
f 83/1/3 79/1/3 73/1/3
f 84/1/3 82/1/3 83/1/3
f 85/1/3 82/1/3 84/1/3
f 86/1/3 74/1/3 82/1/3
f 86/1/3 82/1/3 85/1/3
f 87/1/3 83/1/3 73/1/3
f 87/3/3 84/3/3 83/3/3
f 88/1/3 85/1/3 84/1/3
f 88/3/3 84/3/3 87/3/3
f 89/3/3 86/3/3 85/3/3
f 89/1/3 85/1/3 88/1/3
f 90/1/3 74/1/3 86/1/3
f 90/3/3 86/3/3 89/3/3
f 91/1/3 87/1/3 73/1/3
f 91/1/3 89/1/3 88/1/3
f 91/1/3 90/1/3 89/1/3
f 91/1/3 88/1/3 87/1/3
f 92/1/3 74/1/3 90/1/3
f 92/1/3 90/1/3 91/1/3
f 95/4/3 94/4/3 93/4/3
f 96/4/3 94/4/3 95/4/3
f 99/4/3 98/4/3 97/4/3
f 100/4/3 98/4/3 99/4/3
f 103/4/3 102/4/3 101/4/3
f 104/4/3 102/4/3 103/4/3
f 107/4/3 106/4/3 105/4/3
f 108/4/3 106/4/3 107/4/3
f 109/4/4 110/4/4 111/4/4
f 111/4/4 110/4/4 112/4/4
f 113/4/4 114/4/4 115/4/4
f 115/4/4 114/4/4 116/4/4
f 117/4/4 118/4/4 119/4/4
f 119/4/4 118/4/4 120/4/4
f 121/4/4 122/4/4 123/4/4
f 123/4/4 122/4/4 124/4/4
f 125/1/4 126/1/4 127/1/4
f 127/1/4 126/1/4 128/1/4
f 128/1/4 126/1/4 129/1/4
f 129/1/4 126/1/4 130/1/4
f 125/1/4 127/1/4 131/1/4
f 127/3/4 128/3/4 131/3/4
f 128/1/4 129/1/4 132/1/4
f 131/3/4 128/3/4 132/3/4
f 129/3/4 130/3/4 133/3/4
f 132/1/4 129/1/4 133/1/4
f 130/1/4 126/1/4 134/1/4
f 133/3/4 130/3/4 134/3/4
f 132/1/4 133/1/4 135/1/4
f 131/1/4 132/1/4 135/1/4
f 133/1/4 134/1/4 135/1/4
f 125/1/4 131/1/4 135/1/4
f 135/1/4 134/1/4 136/1/4
f 136/1/4 134/1/4 137/1/4
f 134/1/4 126/1/4 138/1/4
f 137/1/4 134/1/4 138/1/4
f 125/1/4 135/1/4 139/1/4
f 135/3/4 136/3/4 139/3/4
f 136/1/4 137/1/4 140/1/4
f 139/3/4 136/3/4 140/3/4
f 137/3/4 138/3/4 141/3/4
f 140/1/4 137/1/4 141/1/4
f 138/1/4 126/1/4 142/1/4
f 141/3/4 138/3/4 142/3/4
f 125/1/4 139/1/4 143/1/4
f 140/1/4 141/1/4 143/1/4
f 141/1/4 142/1/4 143/1/4
f 139/1/4 140/1/4 143/1/4
f 142/1/4 126/1/4 144/1/4
f 143/1/4 142/1/4 144/1/4
f 149/4/5 146/4/5 145/4/5
f 150/4/5 146/4/5 149/4/5
f 151/4/5 148/4/5 147/4/5
f 152/4/5 148/4/5 151/4/5
f 157/4/5 154/4/5 153/4/5
f 158/4/5 154/4/5 157/4/5
f 159/4/5 156/4/5 155/4/5
f 160/4/5 156/4/5 159/4/5
f 163/1/5 162/1/5 161/1/5
f 164/1/5 162/1/5 163/1/5
f 165/1/5 162/1/5 164/1/5
f 166/1/5 162/1/5 165/1/5
f 167/1/5 163/1/5 161/1/5
f 168/1/5 165/1/5 164/1/5
f 169/1/5 165/1/5 168/1/5
f 170/1/5 162/1/5 166/1/5
f 171/1/5 169/1/5 168/1/5
f 171/1/5 170/1/5 169/1/5
f 171/1/5 167/1/5 161/1/5
f 171/1/5 168/1/5 167/1/5
f 172/1/5 170/1/5 171/1/5
f 173/1/5 170/1/5 172/1/5
f 174/1/5 162/1/5 170/1/5
f 174/1/5 170/1/5 173/1/5
f 175/1/5 171/1/5 161/1/5
f 176/1/5 173/1/5 172/1/5
f 177/1/5 173/1/5 176/1/5
f 178/1/5 162/1/5 174/1/5
f 179/1/5 175/1/5 161/1/5
f 179/1/5 178/1/5 177/1/5
f 179/1/5 177/1/5 176/1/5
f 179/1/5 176/1/5 175/1/5
f 180/1/5 162/1/5 178/1/5
f 180/1/5 178/1/5 179/1/5
f 181/1/6 182/1/6 183/1/6
f 183/1/6 182/1/6 184/1/6
f 181/1/6 183/1/6 185/1/6
f 183/2/6 184/2/6 185/2/6
f 184/1/6 182/1/6 186/1/6
f 185/2/6 184/2/6 186/2/6
f 181/1/6 185/1/6 187/1/6
f 185/1/6 186/1/6 187/1/6
f 186/1/6 182/1/6 188/1/6
f 187/1/6 186/1/6 188/1/6
