# MagicaVoxel @ Ephtracy

# group
o 

# material
mtllib info-stand.mtl
usemtl palette

# normals
vn -1 0 0
vn 1 0 0
vn 0 0 1
vn 0 0 -1
vn 0 -1 0
vn 0 1 0

# texcoords
vt 0.974609 0.5
vt 0.982422 0.5
vt 0.990234 0.5

# verts
v -0.8 0 0.1
v -0.8 0 0
v -0.8 0.1 0.1
v -0.8 0.1 0
v -0.8 0.5 0.1
v -0.8 0.5 0
v -0.8 0.6 0.1
v -0.8 0.6 0
v 0.7 0 0.1
v 0.7 0 0
v 0.7 0.1 0.1
v 0.7 0.1 0
v 0.7 0.5 0.1
v 0.7 0.5 0
v -0.7 0 0.1
v -0.7 0 0
v -0.7 0.1 0.1
v -0.7 0.1 0
v -0.7 0.5 0.1
v -0.7 0.5 0
v 0.8 0 0.1
v 0.8 0 0
v 0.8 0.1 0.1
v 0.8 0.1 0
v 0.8 0.5 0.1
v 0.8 0.5 0
v 0.8 0.6 0.1
v 0.8 0.6 0
v -0.8 0 0.1
v -0.8 0.1 0.1
v -0.8 0.5 0.1
v -0.8 0.6 0.1
v -0.7 0 0.1
v -0.7 0.1 0.1
v -0.7 0.5 0.1
v -0.7 0.6 0.1
v 0.7 0 0.1
v 0.7 0.1 0.1
v 0.7 0.5 0.1
v 0.7 0.6 0.1
v 0.8 0 0.1
v 0.8 0.1 0.1
v 0.8 0.5 0.1
v 0.8 0.6 0.1
v -0.8 0 0
v -0.8 0.1 0
v -0.8 0.5 0
v -0.8 0.6 0
v -0.7 0 0
v -0.7 0.1 0
v -0.7 0.5 0
v -0.7 0.6 0
v 0.7 0 0
v 0.7 0.1 0
v 0.7 0.5 0
v 0.7 0.6 0
v 0.8 0 0
v 0.8 0.1 0
v 0.8 0.5 0
v 0.8 0.6 0
v -0.8 0 0.1
v -0.7 0 0.1
v 0.7 0 0.1
v 0.8 0 0.1
v -0.8 0 0
v -0.7 0 0
v 0.7 0 0
v 0.8 0 0
v -0.7 0.5 0.1
v 0.7 0.5 0.1
v -0.7 0.5 0
v 0.7 0.5 0
v -0.8 0.6 0.1
v -0.7 0.6 0.1
v 0.7 0.6 0.1
v 0.8 0.6 0.1
v -0.8 0.6 0
v -0.7 0.6 0
v 0.7 0.6 0
v 0.8 0.6 0

# faces
f 3/3/1 2/3/1 1/3/1
f 4/3/1 2/3/1 3/3/1
f 5/2/1 4/2/1 3/2/1
f 6/2/1 4/2/1 5/2/1
f 7/1/1 6/1/1 5/1/1
f 8/1/1 6/1/1 7/1/1
f 11/3/1 10/3/1 9/3/1
f 12/3/1 10/3/1 11/3/1
f 13/2/1 12/2/1 11/2/1
f 14/2/1 12/2/1 13/2/1
f 15/3/2 16/3/2 17/3/2
f 17/3/2 16/3/2 18/3/2
f 17/2/2 18/2/2 19/2/2
f 19/2/2 18/2/2 20/2/2
f 21/3/2 22/3/2 23/3/2
f 23/3/2 22/3/2 24/3/2
f 23/2/2 24/2/2 25/2/2
f 25/2/2 24/2/2 26/2/2
f 25/1/2 26/1/2 27/1/2
f 27/1/2 26/1/2 28/1/2
f 33/3/3 30/3/3 29/3/3
f 34/2/3 31/2/3 30/2/3
f 34/3/3 30/3/3 33/3/3
f 35/1/3 32/1/3 31/1/3
f 35/2/3 31/2/3 34/2/3
f 36/1/3 32/1/3 35/1/3
f 39/3/3 36/3/3 35/3/3
f 40/3/3 36/3/3 39/3/3
f 41/3/3 38/3/3 37/3/3
f 42/2/3 39/2/3 38/2/3
f 42/3/3 38/3/3 41/3/3
f 43/1/3 40/1/3 39/1/3
f 43/2/3 39/2/3 42/2/3
f 44/1/3 40/1/3 43/1/3
f 45/3/4 46/3/4 49/3/4
f 46/2/4 47/2/4 50/2/4
f 49/3/4 46/3/4 50/3/4
f 47/1/4 48/1/4 51/1/4
f 50/2/4 47/2/4 51/2/4
f 51/1/4 48/1/4 52/1/4
f 51/3/4 52/3/4 55/3/4
f 55/3/4 52/3/4 56/3/4
f 53/3/4 54/3/4 57/3/4
f 54/2/4 55/2/4 58/2/4
f 57/3/4 54/3/4 58/3/4
f 55/1/4 56/1/4 59/1/4
f 58/2/4 55/2/4 59/2/4
f 59/1/4 56/1/4 60/1/4
f 65/3/5 62/3/5 61/3/5
f 66/3/5 62/3/5 65/3/5
f 67/3/5 64/3/5 63/3/5
f 68/3/5 64/3/5 67/3/5
f 71/3/5 70/3/5 69/3/5
f 72/3/5 70/3/5 71/3/5
f 73/1/6 74/1/6 77/1/6
f 74/3/6 75/3/6 78/3/6
f 77/1/6 74/1/6 78/1/6
f 75/1/6 76/1/6 79/1/6
f 78/3/6 75/3/6 79/3/6
f 79/1/6 76/1/6 80/1/6
